# Blender v3.3.1 OBJ File: 'eraser.blend'
# www.blender.org
mtllib eraser.mtl
o Cube_Cube.001
v 1.441209 0.134742 -1.030277
v 1.441209 -0.116777 -1.030277
v -1.441209 0.134742 -1.030277
v -1.441209 -0.116777 -1.030277
v -1.441209 -0.560886 6.026744
v -1.328385 -0.673711 6.319101
v -1.328385 -0.615399 6.335339
v -1.408164 -0.640665 6.172923
v -1.393525 -0.633391 6.287127
v -1.328385 -0.656632 6.370591
v -1.408164 -0.568139 6.193118
v -1.441209 0.560886 4.168634
v -1.328385 0.615399 4.296638
v -1.328385 0.673711 4.087226
v -1.408164 0.608147 4.244712
v -1.393525 0.641702 4.191137
v -1.328385 0.656632 4.195294
v -1.408164 0.640665 4.127930
v -1.441209 -0.560886 -1.936758
v -1.328385 -0.615399 -2.064762
v -1.328385 -0.673711 -1.855350
v -1.408164 -0.608147 -2.012837
v -1.393525 -0.641702 -1.959262
v -1.328385 -0.656632 -1.963419
v -1.408164 -0.640665 -1.896054
v -1.441209 0.560886 -3.794868
v -1.328385 0.673711 -4.087226
v -1.328385 0.615399 -4.103463
v -1.408164 0.640665 -3.941047
v -1.393525 0.633391 -4.055253
v -1.328385 0.656632 -4.138715
v -1.408164 0.568139 -3.961242
v 1.441209 -0.560886 6.026744
v 1.328385 -0.615399 6.335339
v 1.328385 -0.673711 6.319101
v 1.408164 -0.568139 6.193118
v 1.393525 -0.633391 6.287127
v 1.328385 -0.656632 6.370591
v 1.408164 -0.640665 6.172923
v 1.441209 0.560886 4.168634
v 1.328385 0.673711 4.087226
v 1.328385 0.615399 4.296638
v 1.408164 0.640665 4.127930
v 1.393525 0.641702 4.191137
v 1.328385 0.656632 4.195294
v 1.408164 0.608147 4.244712
v 1.328385 -0.673711 -1.855350
v 1.328385 -0.615399 -2.064762
v 1.441209 -0.560886 -1.936758
v 1.328385 -0.656632 -1.963419
v 1.393525 -0.641702 -1.959262
v 1.408164 -0.608147 -2.012837
v 1.408164 -0.640665 -1.896054
v 1.328385 0.615399 -4.103463
v 1.328385 0.673711 -4.087226
v 1.441209 0.560886 -3.794868
v 1.328385 0.656632 -4.138715
v 1.393525 0.633391 -4.055253
v 1.408164 0.640665 -3.941047
v 1.408164 0.568139 -3.961242
v -1.441209 -0.560886 -1.030277
v -1.328385 -0.673711 -1.030277
v -1.408164 -0.640665 -1.030277
v -1.441209 0.560886 -1.030277
v -1.328385 0.673711 -1.030277
v -1.408164 0.640665 -1.030277
v 1.441209 -0.560886 -1.030277
v 1.328385 -0.673711 -1.030277
v 1.408164 -0.640665 -1.030277
v 1.441209 0.560886 -1.030277
v 1.328385 0.673711 -1.030277
v 1.408164 0.640665 -1.030277
v -1.328385 -0.116777 5.509417
v -1.441209 -0.116777 5.291118
v -1.408164 -0.116777 5.445479
v -1.441209 0.134742 4.874501
v -1.328385 0.134742 5.092801
v -1.408164 0.134742 5.028862
v -1.328385 0.134742 -3.307300
v -1.441209 0.134742 -3.089001
v -1.408164 0.134742 -3.243362
v -1.441209 -0.116777 -2.672384
v -1.328385 -0.116777 -2.890683
v -1.408164 -0.116777 -2.826745
v 1.441209 0.134742 -3.089001
v 1.328385 0.134742 -3.307300
v 1.408164 0.134742 -3.243362
v 1.328385 -0.116777 -2.890683
v 1.441209 -0.116777 -2.672384
v 1.408164 -0.116777 -2.826745
v 1.328385 0.134742 5.092801
v 1.441209 0.134742 4.874501
v 1.408164 0.134742 5.028862
v 1.441209 -0.116777 5.291118
v 1.328385 -0.116777 5.509417
v 1.408164 -0.116777 5.445479
vt 0.616181 0.695405
vt 0.656580 0.695400
vt 0.656613 0.957485
vt 0.616206 0.890574
vt 0.675282 0.202541
vt 0.717392 0.132809
vt 0.717372 0.288481
vt 0.675271 0.288476
vt 0.550235 0.695414
vt 0.592337 0.695408
vt 0.592357 0.851081
vt 0.550246 0.781349
vt 0.009284 0.090229
vt 0.009284 0.005916
vt 0.261147 0.005916
vt 0.261147 0.090229
vt 0.531579 0.990554
vt 0.279716 0.990554
vt 0.279716 0.711412
vt 0.531579 0.711412
vt 0.741241 0.093316
vt 0.781649 0.026405
vt 0.781615 0.288490
vt 0.741217 0.288484
vt 0.009284 0.242412
vt 0.261147 0.242412
vt 0.261147 0.318266
vt 0.009284 0.318266
vt 0.009284 0.221811
vt 0.009284 0.134347
vt 0.261147 0.134347
vt 0.261147 0.221811
vt 0.545767 0.788561
vt 0.542585 0.783483
vt 0.542682 0.777491
vt 0.009284 0.232082
vt 0.003109 0.232119
vt 0.001721 0.226417
vt 0.001721 0.237906
vt 0.664178 0.971342
vt 0.663490 0.982169
vt 0.657303 0.973257
vt 0.279716 0.994821
vt 0.273541 0.986608
vt 0.272153 0.976364
vt 0.001721 0.020084
vt 0.003109 0.009932
vt 0.009284 0.001721
vt 0.261147 0.232082
vt 0.267323 0.232119
vt 0.268710 0.237906
vt 0.268710 0.226417
vt 0.667718 0.206399
vt 0.667621 0.200407
vt 0.670802 0.195328
vt 0.261147 0.001721
vt 0.267323 0.009932
vt 0.268710 0.020084
vt 0.539142 0.976364
vt 0.537755 0.986608
vt 0.531579 0.994821
vt 0.782338 0.010633
vt 0.788525 0.001721
vt 0.789213 0.012548
vt 0.272153 0.710570
vt 0.664143 0.695399
vt 0.001721 0.140226
vt 0.592359 0.865715
vt 0.717394 0.118175
vt 0.268710 0.140226
vt 0.268710 0.317502
vt 0.667708 0.288475
vt 0.001721 0.317502
vt 0.542672 0.695415
vt 0.539142 0.710570
vt 0.789178 0.288491
vt 0.001721 0.096107
vt 0.616208 0.905207
vt 0.741243 0.078683
vt 0.268710 0.096107
vt 0.717296 0.887753
vt 0.675185 0.957485
vt 0.279716 0.244112
vt 0.531579 0.244112
vt 0.531579 0.005991
vt 0.531579 0.094110
vt 0.279716 0.094110
vt 0.279716 0.005991
vt 0.531579 0.138560
vt 0.531579 0.223505
vt 0.279716 0.223505
vt 0.279716 0.138560
vt 0.261147 0.993940
vt 0.009284 0.993940
vt 0.616109 0.135630
vt 0.656517 0.202541
vt 0.781552 0.781349
vt 0.741145 0.848260
vt 0.550150 0.026405
vt 0.542585 0.012548
vt 0.543273 0.001721
vt 0.549460 0.010633
vt 0.009284 0.998279
vt 0.003109 0.990068
vt 0.001721 0.979737
vt 0.272153 0.020181
vt 0.273541 0.009934
vt 0.279716 0.001721
vt 0.660996 0.195328
vt 0.664178 0.200407
vt 0.664080 0.206399
vt 0.279716 0.233809
vt 0.273541 0.233809
vt 0.272153 0.228062
vt 0.272153 0.239554
vt 0.674496 0.973257
vt 0.668309 0.982169
vt 0.667621 0.971342
vt 0.531579 0.001721
vt 0.537755 0.009934
vt 0.539142 0.020181
vt 0.268710 0.979737
vt 0.267323 0.990068
vt 0.261147 0.998279
vt 0.789116 0.777491
vt 0.789213 0.783483
vt 0.786032 0.788562
vt 0.531579 0.233809
vt 0.537755 0.233809
vt 0.539142 0.239554
vt 0.539142 0.228062
vt 0.272153 0.144399
vt 0.616108 0.120996
vt 0.539142 0.099949
vt 0.717294 0.902386
vt 0.272153 0.099949
vt 0.592259 0.081504
vt 0.592260 0.096137
vt 0.539142 0.144399
vt 0.741143 0.862894
vn -1.0000 -0.0000 0.0000
vn -0.9808 0.1951 0.0000
vn -0.9945 0.0282 -0.1012
vn -0.9808 -0.1670 -0.1008
vn 0.9685 -0.2400 -0.0668
vn 0.9808 -0.1670 -0.1008
vn 1.0000 -0.0000 0.0000
vn 0.9808 -0.1951 0.0000
vn -0.9808 -0.1951 0.0000
vn -0.9685 -0.2400 -0.0668
vn -0.1951 -0.8396 -0.5069
vn -0.2771 -0.7311 -0.6235
vn 0.2771 -0.7311 -0.6235
vn 0.1951 -0.8396 -0.5069
vn 0.2771 0.9481 -0.1559
vn -0.2771 0.9481 -0.1559
vn -0.1951 0.9808 0.0000
vn 0.1951 0.9808 -0.0000
vn 0.9945 0.0282 -0.1012
vn 0.9808 0.1951 -0.0000
vn -0.1763 -0.9825 -0.0601
vn 0.1763 -0.9825 -0.0601
vn 0.1951 -0.9808 0.0000
vn -0.1951 -0.9808 0.0000
vn -0.1763 -0.8722 -0.4563
vn 0.1763 -0.8722 -0.4563
vn -0.9062 -0.3856 -0.1735
vn -0.8694 -0.4760 -0.1326
vn -0.9062 -0.4198 -0.0508
vn -0.1447 -0.9532 -0.2654
vn -0.2894 -0.9221 -0.2568
vn -0.3244 -0.8437 -0.4277
vn -0.3244 -0.9433 -0.0699
vn -0.9845 0.1052 -0.1401
vn -0.9848 0.0466 -0.1674
vn -0.9845 -0.0177 -0.1744
vn -0.5772 0.7990 -0.1684
vn -0.4135 0.9101 -0.0250
vn -0.4135 -0.7662 -0.4918
vn -0.5772 -0.5970 -0.5572
vn 0.1447 -0.9532 -0.2654
vn 0.2894 -0.9221 -0.2568
vn 0.3244 -0.9433 -0.0699
vn 0.3244 -0.8437 -0.4277
vn 0.9062 -0.4198 -0.0508
vn 0.8694 -0.4760 -0.1326
vn 0.9062 -0.3856 -0.1735
vn 0.5772 -0.5970 -0.5572
vn 0.4135 -0.7662 -0.4918
vn 0.4135 0.9101 -0.0250
vn 0.5772 0.7990 -0.1684
vn 0.9845 -0.0177 -0.1744
vn 0.9848 0.0466 -0.1674
vn 0.9845 0.1053 -0.1401
vn -0.3827 0.9239 0.0000
vn -0.9239 0.3827 0.0000
vn -0.3827 -0.7909 -0.4775
vn -0.9239 -0.3276 -0.1978
vn -0.0000 0.9491 -0.3148
vn 0.0000 -0.6498 -0.7601
vn 0.9239 -0.3276 -0.1978
vn 0.3827 -0.7909 -0.4775
vn 0.3827 -0.9239 0.0000
vn 0.9239 -0.3827 0.0000
vn -0.3827 -0.9239 0.0000
vn -0.9239 -0.3827 0.0000
vn 0.3827 0.9239 -0.0000
vn 0.9239 0.3827 -0.0000
vn 0.9808 0.1670 0.1008
vn 0.9945 -0.0282 0.1012
vn -0.1763 0.9825 0.0601
vn 0.1763 0.9825 0.0601
vn 0.2771 0.7311 0.6235
vn 0.1951 0.8396 0.5069
vn -0.1951 0.8396 0.5069
vn -0.2771 0.7311 0.6235
vn 0.1764 0.8722 0.4563
vn -0.1764 0.8722 0.4563
vn 0.2771 -0.9481 0.1559
vn -0.2771 -0.9481 0.1559
vn -0.9808 0.1670 0.1008
vn -0.9685 0.2400 0.0668
vn 0.9685 0.2400 0.0668
vn -0.9945 -0.0282 0.1012
vn -0.9845 -0.1053 0.1401
vn -0.9848 -0.0466 0.1674
vn -0.9845 0.0177 0.1744
vn -0.5772 -0.7990 0.1684
vn -0.4135 -0.9101 0.0250
vn -0.4135 0.7662 0.4918
vn -0.5772 0.5970 0.5572
vn -0.9062 0.3856 0.1735
vn -0.8694 0.4760 0.1326
vn -0.9062 0.4198 0.0508
vn -0.1447 0.9532 0.2654
vn -0.2894 0.9221 0.2568
vn -0.3244 0.8437 0.4277
vn -0.3244 0.9433 0.0699
vn 0.9845 0.0177 0.1744
vn 0.9848 -0.0466 0.1674
vn 0.9845 -0.1053 0.1401
vn 0.5772 0.5970 0.5572
vn 0.4135 0.7662 0.4918
vn 0.4135 -0.9101 0.0250
vn 0.5772 -0.7990 0.1684
vn 0.9062 0.4198 0.0508
vn 0.8694 0.4760 0.1326
vn 0.9062 0.3856 0.1735
vn 0.1447 0.9532 0.2654
vn 0.2894 0.9221 0.2568
vn 0.3244 0.9433 0.0699
vn 0.3244 0.8437 0.4277
vn -0.3827 0.7909 0.4775
vn -0.9239 0.3276 0.1978
vn 0.3827 0.7909 0.4775
vn 0.9239 0.3276 0.1978
vn 0.0000 -0.9491 0.3148
vn 0.0000 0.6498 0.7601
usemtl Material.001
s 1
f 3/1/1 64/2/2 26/3/3 80/4/4
f 49/5/5 89/6/6 2/7/7 67/8/8
f 61/9/9 4/10/1 82/11/4 19/12/10
f 79/13/11 28/14/12 54/15/13 86/16/14
f 55/17/15 27/18/16 65/19/17 71/20/18
f 85/21/6 56/22/19 70/23/20 1/24/7
f 21/25/21 47/26/22 68/27/23 62/28/24
f 20/29/25 83/30/11 88/31/14 48/32/26
f 19/12/10 22/33/27 23/34/28 25/35/29
f 20/29/25 24/36/30 23/37/31 22/38/32
f 21/25/21 25/39/33 23/37/31 24/36/30
f 26/3/3 29/40/34 30/41/35 32/42/36
f 27/18/16 31/43/37 30/44/37 29/45/38
f 28/14/12 32/46/39 30/47/40 31/48/40
f 47/26/22 50/49/41 51/50/42 53/51/43
f 48/32/26 52/52/44 51/50/42 50/49/41
f 49/5/5 53/53/45 51/54/46 52/55/47
f 54/15/13 57/56/48 58/57/48 60/58/49
f 55/17/15 59/59/50 58/60/51 57/61/51
f 56/22/19 60/62/52 58/63/53 59/64/54
f 65/19/17 27/18/16 29/45/38 66/65/55
f 66/66/56 29/40/34 26/3/3 64/2/2
f 83/30/11 20/29/25 22/38/32 84/67/57
f 84/68/58 22/33/27 19/12/10 82/11/4
f 47/26/22 21/25/21 24/36/30 50/49/41
f 50/49/41 24/36/30 20/29/25 48/32/26
f 27/18/16 55/17/15 57/61/59 31/43/59
f 31/48/60 57/56/60 54/15/13 28/14/12
f 89/6/6 49/5/5 52/55/47 90/69/61
f 90/70/62 52/52/44 48/32/26 88/31/14
f 68/27/23 47/26/22 53/51/43 69/71/63
f 69/72/64 53/53/45 49/5/5 67/8/8
f 21/25/21 62/28/24 63/73/65 25/39/33
f 25/35/29 63/74/66 61/9/9 19/12/10
f 55/17/15 71/20/18 72/75/67 59/59/50
f 59/64/54 72/76/68 70/23/20 56/22/19
f 28/14/12 79/13/11 81/77/57 32/46/39
f 32/42/36 81/78/58 80/4/4 26/3/3
f 56/22/19 85/21/6 87/79/61 60/62/52
f 60/58/49 87/80/62 86/16/14 54/15/13
usemtl Material.002
f 67/8/8 2/7/7 94/81/69 33/82/70
f 71/20/18 65/19/17 14/83/71 41/84/72
f 34/85/73 95/86/74 73/87/75 7/88/76
f 91/89/74 42/90/77 13/91/78 77/92/75
f 62/28/24 68/27/23 35/93/79 6/94/80
f 76/95/81 12/96/82 64/2/2 3/1/1
f 1/24/7 70/23/20 40/97/83 92/98/69
f 5/99/84 8/100/85 9/101/86 11/102/87
f 6/94/80 10/103/88 9/104/88 8/105/89
f 7/88/76 11/106/90 9/107/91 10/108/91
f 12/96/82 15/109/92 16/110/93 18/111/94
f 13/91/78 17/112/95 16/113/96 15/114/97
f 14/83/71 18/115/98 16/113/96 17/112/95
f 33/82/70 36/116/99 37/117/100 39/118/101
f 34/85/73 38/119/102 37/120/102 36/121/103
f 35/93/79 39/122/104 37/123/105 38/124/105
f 40/97/83 43/125/106 44/126/107 46/127/108
f 41/84/72 45/128/109 44/129/110 43/130/111
f 42/90/77 46/131/112 44/129/110 45/128/109
f 62/28/24 6/94/80 8/105/89 63/73/65
f 63/74/66 8/100/85 5/99/84 61/9/9
f 77/92/75 13/91/78 15/114/97 78/132/113
f 78/133/114 15/109/92 12/96/82 76/95/81
f 71/20/18 41/84/72 43/130/111 72/75/67
f 72/76/68 43/125/106 40/97/83 70/23/20
f 95/86/74 34/85/73 36/121/103 96/134/115
f 96/135/116 36/116/99 33/82/70 94/81/69
f 6/94/80 35/93/79 38/124/117 10/103/117
f 10/108/118 38/119/118 34/85/73 7/88/76
f 41/84/72 14/83/71 17/112/95 45/128/109
f 45/128/109 17/112/95 13/91/78 42/90/77
f 14/83/71 65/19/17 66/65/55 18/115/98
f 18/111/94 66/66/56 64/2/2 12/96/82
f 35/93/79 68/27/23 69/71/63 39/122/104
f 39/118/101 69/72/64 67/8/8 33/82/70
f 7/88/76 73/87/75 75/136/113 11/106/90
f 11/102/87 75/137/114 74/138/81 5/99/84
f 42/90/77 91/89/74 93/139/115 46/131/112
f 46/127/108 93/140/116 92/98/69 40/97/83
f 5/99/84 74/138/81 4/10/1 61/9/9
usemtl Material.003
f 95/86/74 91/89/74 77/92/75 73/87/75
f 4/10/1 3/1/1 80/4/4 82/11/4
f 2/7/7 1/24/7 92/98/69 94/81/69
f 74/138/81 76/95/81 3/1/1 4/10/1
f 89/6/6 85/21/6 1/24/7 2/7/7
f 83/30/11 79/13/11 86/16/14 88/31/14
f 73/87/75 77/92/75 78/132/113 75/136/113
f 75/137/114 78/133/114 76/95/81 74/138/81
f 79/13/11 83/30/11 84/67/57 81/77/57
f 81/78/58 84/68/58 82/11/4 80/4/4
f 85/21/6 89/6/6 90/69/61 87/79/61
f 87/80/62 90/70/62 88/31/14 86/16/14
f 91/89/74 95/86/74 96/134/115 93/139/115
f 93/140/116 96/135/116 94/81/69 92/98/69
